<?xml version="1.0" standalone="no"?>
<!DOCTYPE svg PUBLIC "-//W3C//DTD SVG 20010904//EN"
 "http://www.w3.org/TR/2001/REC-SVG-20010904/DTD/svg10.dtd">
<svg version="1.0" xmlns="http://www.w3.org/2000/svg"
 width="176.000000pt" height="176.000000pt" viewBox="0 0 176.000000 176.000000"
 preserveAspectRatio="xMidYMid meet">
<metadata>
Created by potrace 1.14, written by Peter Selinger 2001-2017
</metadata>
<g transform="translate(0.000000,176.000000) scale(0.100000,-0.100000)"
fill="#000000" stroke="none">
<path d="M2 1283 l3 -478 21 -3 c20 -3 22 3 29 72 l7 76 40 0 c38 0 39 1 34
28 -2 15 -7 44 -11 65 -3 20 -11 37 -16 37 -6 0 -17 7 -26 15 -14 14 -14 18 2
35 10 11 22 20 27 20 18 0 47 45 48 73 0 15 5 27 10 27 6 0 10 -13 10 -30 0
-26 29 -70 46 -70 3 0 16 -8 29 -18 23 -18 23 -19 4 -35 -10 -10 -23 -17 -28
-17 -14 0 -27 -142 -21 -235 l7 -90 1 75 c2 65 6 78 27 98 18 18 25 35 27 75
3 49 5 52 31 55 51 6 57 -9 58 -137 1 -64 3 -108 6 -98 2 9 9 17 14 17 5 0 9
14 9 31 l0 31 55 -4 c54 -3 55 -3 55 25 0 20 7 30 24 37 13 5 26 15 29 22 5
10 9 9 17 -4 6 -10 18 -18 25 -18 11 0 15 -12 15 -40 0 -34 3 -40 21 -40 12 0
23 -8 26 -20 7 -25 23 -26 23 -2 0 10 11 24 24 31 21 12 27 9 65 -28 22 -22
41 -44 41 -49 0 -6 11 -17 25 -26 14 -9 25 -25 25 -36 0 -13 7 -20 19 -20 10
0 21 -7 25 -15 3 -8 17 -15 30 -15 39 0 137 28 155 44 10 9 27 12 44 9 21 -4
43 4 89 32 79 49 113 49 206 -5 40 -24 93 -45 124 -50 114 -19 174 -32 190
-41 17 -9 18 19 18 531 l0 540 -880 0 -880 0 2 -477z"/>
<path d="M150 1157 c0 -7 -15 -18 -32 -25 l-33 -13 24 -20 c23 -19 40 -72 41
-131 0 -25 -3 -28 -35 -28 -33 0 -35 -2 -35 -35 0 -19 -4 -35 -10 -35 -5 0
-10 -17 -10 -39 0 -35 -3 -39 -30 -44 l-30 -6 0 -391 0 -390 880 0 880 0 0
334 0 334 -32 11 c-44 14 -178 41 -203 41 -11 0 -52 18 -90 41 -101 59 -127
61 -213 9 -49 -29 -77 -40 -91 -35 -12 4 -30 0 -43 -9 -12 -9 -34 -16 -48 -16
-14 0 -30 -4 -35 -9 -10 -9 -61 -15 -97 -12 -10 0 -18 8 -18 16 0 9 -9 15 -24
15 -19 0 -25 6 -28 28 -2 19 -9 28 -25 30 -14 2 -23 10 -23 20 0 9 -15 32 -34
50 -36 35 -63 35 -68 -1 -4 -30 -48 -37 -48 -8 0 14 -6 21 -20 21 -17 0 -20 7
-20 40 0 45 -26 68 -59 51 -14 -8 -19 -25 -23 -75 -6 -73 -17 -100 -29 -70 -4
10 -8 34 -8 52 -1 32 -2 33 -38 30 -33 -3 -38 -7 -41 -30 -2 -16 -8 -28 -13
-28 -5 0 -9 -9 -9 -20 0 -11 -7 -20 -15 -20 -12 0 -15 23 -17 123 l-3 122 -27
3 c-27 3 -28 2 -28 -42 0 -36 -6 -50 -30 -74 -28 -28 -30 -36 -30 -100 0 -51
-4 -71 -14 -75 -27 -11 -34 193 -10 311 4 18 12 32 19 32 8 0 15 6 17 12 6 16
-16 38 -36 38 -9 0 -16 7 -16 15 0 8 -9 15 -20 15 -11 0 -20 -6 -20 -13z"/>
</g>
</svg>
